<svg width="43" height="23" viewBox="0 0 43 23" fill="none" xmlns="http://www.w3.org/2000/svg">
<path d="M0.944 0.599998H10.16C13.2747 0.599998 15.8347 1.37867 17.84 2.936C19.8667 4.472 20.88 6.62667 20.88 9.4V14.168C20.88 17.0693 19.8987 19.2667 17.936 20.76C15.9733 22.2533 13.392 23 10.192 23H0.944C0.709333 23 0.506667 22.9147 0.336 22.744C0.165334 22.5733 0.0800002 22.3707 0.0800002 22.136V1.464C0.0800002 1.22933 0.165334 1.02667 0.336 0.855999C0.506667 0.685332 0.709333 0.599998 0.944 0.599998ZM8.08 6.84V16.76H10.16C10.8853 16.76 11.4613 16.5467 11.888 16.12C12.336 15.672 12.56 15.0213 12.56 14.168V9.4C12.56 7.69333 11.76 6.84 10.16 6.84H8.08ZM32.5205 16.44H41.3845C41.6192 16.44 41.8218 16.5253 41.9925 16.696C42.1632 16.8667 42.2485 17.0693 42.2485 17.304V22.136C42.2485 22.3707 42.1632 22.5733 41.9925 22.744C41.8218 22.9147 41.6192 23 41.3845 23H25.2565C25.0218 23 24.8192 22.9147 24.6485 22.744C24.4778 22.5733 24.3925 22.3707 24.3925 22.136V1.464C24.3925 1.22933 24.4778 1.02667 24.6485 0.855999C24.8192 0.685332 25.0218 0.599998 25.2565 0.599998H31.6565C31.8912 0.599998 32.0938 0.685332 32.2645 0.855999C32.4352 1.02667 32.5205 1.22933 32.5205 1.464V16.44Z" fill="#AEAEAE"/>
</svg>
