<svg width="53" height="16" viewBox="0 0 53 16" fill="none" xmlns="http://www.w3.org/2000/svg">
<path d="M52.0342 5.78795C52.077 5.73729 52.0965 5.67493 52.0926 5.60868C52.0926 5.56192 52.0848 5.51905 52.0614 5.47618C52.0381 5.43721 52.003 5.40603 51.964 5.38655C51.9289 5.36706 51.89 5.35147 51.8471 5.34757C51.7925 5.33978 51.7419 5.33588 51.6873 5.33978H51.3327V6.31795H51.5665V5.95942H51.66L51.9484 6.31795H52.2407L51.8861 5.89707C51.9445 5.87368 51.9913 5.83471 52.0342 5.78795ZM51.8237 5.69831C51.8237 5.69831 51.8003 5.73339 51.7808 5.74508C51.7614 5.76067 51.738 5.77236 51.7146 5.77236C51.6834 5.78015 51.6522 5.78405 51.6172 5.78405H51.5626V5.50736H51.6328C51.66 5.50736 51.6873 5.50736 51.7146 5.51125C51.7341 5.51125 51.7575 5.51905 51.7731 5.53074C51.7925 5.53853 51.8081 5.55412 51.8198 5.57361C51.8276 5.59309 51.8315 5.61258 51.8315 5.63206C51.8315 5.65545 51.8276 5.67883 51.8198 5.70221L51.8237 5.69831ZM52.4005 5.15662C52.0186 4.7747 51.3989 4.7786 51.0209 5.16051C50.6429 5.54243 50.6429 6.16207 51.0248 6.54009C51.4067 6.91811 52.0264 6.91811 52.4044 6.53619C52.5875 6.35303 52.6889 6.10751 52.6889 5.8503C52.6928 5.5892 52.5875 5.33978 52.4005 5.15662ZM52.2485 6.392C52.1082 6.54009 51.9095 6.62193 51.7068 6.62193C51.5042 6.62193 51.3054 6.54009 51.1651 6.392C50.865 6.09192 50.865 5.60868 51.1651 5.3086C51.3054 5.16051 51.5042 5.07867 51.7068 5.07867C51.9095 5.07867 52.1082 5.15662 52.2485 5.30471C52.5486 5.60478 52.5486 6.09192 52.2485 6.392ZM43.2968 12.2493L41.0015 5.73728H36.89L40.8806 15.5775H45.5766L49.5985 5.73728H45.5611L43.2968 12.2493ZM9.44269 7.4715C9.44269 7.4715 9.4232 7.4637 9.41541 7.45981C9.63754 7.37407 9.85188 7.26885 10.0545 7.14414C11.6329 6.08413 12.0537 3.94851 10.9937 2.37019C10.3624 1.42709 9.30629 0.858109 8.16833 0.846417H0V15.5775H6.87839C7.01089 15.5775 7.1356 15.5775 7.2642 15.5736H9.12702C11.3679 15.4917 12.8371 13.6562 12.8371 11.3998C12.8371 9.43564 11.2626 7.92356 9.43879 7.4754L9.44269 7.4715ZM4.01402 3.5588H5.98985C6.21588 3.5627 6.44192 3.59777 6.65626 3.66013C7.09273 3.8394 7.42788 4.20962 7.56038 4.66558C7.58766 4.7786 7.60325 4.89161 7.60325 5.00853C7.60325 5.26574 7.56039 5.51905 7.47465 5.76067C7.37332 5.97501 7.22134 6.16597 7.03428 6.31406C6.96413 6.36082 6.89398 6.39979 6.81993 6.43487C6.57442 6.55568 6.30552 6.62583 6.03272 6.64531C5.77551 6.657 5.6547 6.6648 5.01947 6.6648H4.01402V3.5627V3.5588ZM7.79421 12.4754C7.42009 12.717 6.97972 12.8495 6.53155 12.8495H4.01792V9.19402H6.14574C6.29772 9.19402 6.42633 9.19402 6.50037 9.19402C6.81604 9.19402 7.12781 9.24078 7.42788 9.33821C7.48634 9.3577 7.5448 9.38108 7.60325 9.40446C8.4801 9.84873 8.83084 10.9204 8.39047 11.7973C8.25407 12.0701 8.04752 12.3 7.79421 12.4715V12.4754ZM21.3133 5.76067L17.8448 10.1839V0.838623H13.9477V15.5775H17.8448L19.5206 13.4536L21.0794 15.5775H25.5221L21.777 10.5541L25.5338 5.76067H21.3133ZM35.6079 6.14648C34.8128 5.56581 32.8799 5.28132 31.1418 5.28132C30.4364 5.28912 29.7349 5.35147 29.0373 5.46449C28.1956 5.59309 27.3694 5.81133 26.5744 6.11141L27.6928 8.36393C28.4255 7.91966 29.2478 7.64297 30.0973 7.54554C30.6118 7.4637 31.1379 7.45591 31.6523 7.52216C31.9719 7.55334 32.2797 7.66635 32.5447 7.84952C32.876 8.09893 33.0552 8.50423 33.0202 8.91733V8.99137C31.5471 8.97578 30.0779 9.14336 28.6476 9.4863C27.3265 9.87212 25.9469 11.0451 25.9469 12.5962C26.0015 14.3655 27.4551 15.7684 29.2244 15.7567C29.2712 15.7567 29.7037 15.7645 29.7037 15.7645C30.8729 15.7022 32.0108 15.3437 33.0007 14.7201L33.6515 15.5931H36.7965V8.73806C36.7965 7.55334 36.399 6.72715 35.604 6.14648H35.6079ZM33.0046 12.8924C32.5175 13.3912 31.8627 13.6991 31.1652 13.7497C31.1067 13.7497 31.0482 13.7497 30.9898 13.738C30.9625 13.738 30.9352 13.7302 30.9118 13.7302C30.8963 13.7302 30.8768 13.7225 30.8612 13.7225C30.148 13.5822 29.6804 12.8924 29.8207 12.1792C29.922 11.657 30.3312 11.2478 30.8534 11.1426C30.8651 11.1387 30.8729 11.1387 30.8885 11.1309C31.4224 11.014 33.0007 10.8659 33.0007 10.8659V12.8963L33.0046 12.8924Z" fill="#ED5A26"/>
</svg>
